inDegrees=no
num_controls=7
num_derivatives=13
num_iterations=105
num_multipliers=7
num_parameters=0
num_slacks=7
num_states=26
objective=0.478905
objective_accelerations=0.010789
objective_balance=0.000376
objective_effort=0.007666
objective_height=0.450974
objective_ligament=0.009102
solver_duration=1436.183006
status=Solve_Succeeded
success=true
DataType=double
version=3
OpenSimVersion=4.5
endheader
time	/jointset/ground_pelvis/pelvis_tilt/value	/jointset/ground_pelvis/pelvis_tx/value	/jointset/ground_pelvis/pelvis_ty/value	/jointset/hip_l/hip_flexion_l/value	/jointset/hip_l/hip_adduction_l/value	/jointset/hip_l/hip_rotation_l/value	/jointset/back/lumbar_extension/value	/jointset/patellofemoral_l/patellar_flexion_l/value	/jointset/knee_l/knee_flexion_l/value	/jointset/knee_l/knee_adduction_l/value	/jointset/knee_l/knee_rotation_l/value	/jointset/ankle_l/ankle_angle_l/value	/jointset/subtalar_l/subtalar_angle_l/value	/jointset/ground_pelvis/pelvis_tilt/speed	/jointset/ground_pelvis/pelvis_tx/speed	/jointset/ground_pelvis/pelvis_ty/speed	/jointset/hip_l/hip_flexion_l/speed	/jointset/hip_l/hip_adduction_l/speed	/jointset/hip_l/hip_rotation_l/speed	/jointset/back/lumbar_extension/speed	/jointset/patellofemoral_l/patellar_flexion_l/speed	/jointset/knee_l/knee_flexion_l/speed	/jointset/knee_l/knee_adduction_l/speed	/jointset/knee_l/knee_rotation_l/speed	/jointset/ankle_l/ankle_angle_l/speed	/jointset/subtalar_l/subtalar_angle_l/speed	/forceset/tau_hip_flexion_l	/forceset/tau_hip_adduction_l	/forceset/tau_hip_rotation_l	/forceset/tau_knee_flexion_l	/forceset/tau_ankle_angle_l	/forceset/tau_subtalar_angle_l	/forceset/tau_lumbar_extension	lambda_cid13_p0	lambda_cid13_p1	lambda_cid13_p2	lambda_cid13_p3	lambda_cid13_p4	lambda_cid13_p5	lambda_cid14_p0	/jointset/ground_pelvis/pelvis_tilt/accel	/jointset/ground_pelvis/pelvis_tx/accel	/jointset/ground_pelvis/pelvis_ty/accel	/jointset/hip_l/hip_flexion_l/accel	/jointset/hip_l/hip_adduction_l/accel	/jointset/hip_l/hip_rotation_l/accel	/jointset/back/lumbar_extension/accel	/jointset/patellofemoral_l/patellar_flexion_l/accel	/jointset/knee_l/knee_flexion_l/accel	/jointset/knee_l/knee_adduction_l/accel	/jointset/knee_l/knee_rotation_l/accel	/jointset/ankle_l/ankle_angle_l/accel	/jointset/subtalar_l/subtalar_angle_l/accel	gamma_cid13_p0	gamma_cid13_p1	gamma_cid13_p2	gamma_cid13_p3	gamma_cid13_p4	gamma_cid13_p5	gamma_cid14_p0
1	0.1808824678732753	0.1686909814627936	0.8568149986962194	0.1832732275740126	-0.3714076342250098	-0.1273973279949169	-0.4318294161132983	0.6909079351979264	0.6909079351979331	-0.04655394172844521	-0.1745244504871379	0.4361165893039185	0.2144120562920689	-0.11516924756106	0.03722176072914736	0.01205488010594159	0.008034121002887983	0.01794483752304541	-0.06918593900309636	0.1009887469688789	-0.1220408640634971	-0.1220408640634971	0.03129564445399221	3.755425799028219e-06	-0.01944818207063357	0.01968792169595926	0.04252022084764743	0.03687780292186495	0.002002323169696595	-0.2260615935749461	-0.06594908902625445	0.008396580967555812	0.03576944316441227	-48.13232605325214	4.719048341923489	-0.962607375575271	1.670171590196521	-475.8509622702556	-70.58452027927893	-15.50704379586709	-0.6656489698607907	0.08590976166093865	0.2647956373907841	-0.4450394680459597	0.1851901362157922	-0.6112515168058721	1.217458192392797	-1.887668829994082	-1.887668829994082	-0.009529100193862126	0.008208422895538005	-0.8917000048242693	-0.1937609318014339	-1.174134384438159e-09	3.967435973035317e-09	-1.395360233999039e-08	3.377186298566667e-09	-9.403232589090753e-09	9.621751709913419e-10	3.556486462167505e-09
1.01	0.1796970294738781	0.1690672516477964	0.8569487714868441	0.1833321178889182	-0.3712189947494401	-0.1281197226297903	-0.4307582631923231	0.6895930227551591	0.6895930227551517	-0.04624173989105756	-0.1745242942179716	0.4358770195233648	0.21459883555778	-0.1219406482881521	0.03800911012133418	0.01470438604488018	0.003779909763055503	0.01979241465724737	-0.07529548955106148	0.1132575737988994	-0.1409830632953763	-0.1409830632953778	0.03114205865523386	2.675253803035914e-05	-0.02852207076507391	0.01765015429772399	0.04191591670874589	0.03750321629216329	0.001970235469234667	-0.2243718713489914	-0.06809249929395943	0.008348789180504496	0.03605916364974051	-48.83790201013063	4.777177527152161	-0.8734500877442848	2.230564256807116	-476.0024181992232	-70.3197021375839	-15.55808470194137	-0.6862173436452915	0.07167340146715066	0.2657322033977781	-0.4102162941280469	0.1859461960808982	-0.611179027895028	1.233955414205282	-1.903712143946351	-1.903712143946571	-0.01867192707528642	-0.0007694816228329144	-0.9236776278479503	-0.2114501572559072	-1.17778805386925e-09	7.273338010902554e-09	-1.798903468063177e-08	3.973713250992025e-09	-1.035351456681065e-08	5.726241514313512e-09	4.259504762259607e-09
1.02	0.1784432107233073	0.1694507005014149	0.8571091801631088	0.1833495452229912	-0.371011598563717	-0.1289032872109639	-0.4295639499058677	0.6880874449852428	0.6880874449852175	-0.04593115363313181	-0.1745239309450828	0.4355450219906469	0.2147647040468244	-0.1288453177957176	0.03865749445231583	0.01738205723389556	-0.0002584751638219187	0.02169617955379051	-0.08141992826315451	0.125620820064863	-0.1601739294937164	-0.1601739294937194	0.03097252856213651	4.51561698710367e-05	-0.03793373250327543	0.01550576636263535	0.04131161256985771	0.03812862966245831	0.001938147768749437	-0.2226821491230339	-0.07023590956166539	0.008300997393447671	0.03634888413508048	-49.5471680054036	4.832699742413694	-0.7801614999898887	2.785504658121574	-476.2374038347987	-70.07763485397238	-15.61669585870275	-0.6923027259554653	0.05811674941991187	0.2704286874061388	-0.4018742054549558	0.1964276886840243	-0.6142291496314491	1.236342079581427	-1.937402223286287	-1.937402223286259	-0.01271795906166689	0.007289726817411607	-0.9592546135764907	-0.2150850391721035	-1.236591789667313e-09	1.105700997706578e-08	-2.226365419630809e-08	4.64214342513673e-09	-1.136031347299602e-08	1.11440253332125e-08	4.978526062860653e-09
1.03	0.1771197145821599	0.1698399525336281	0.8572964929086815	0.1833276261789857	-0.3707848995255151	-0.1297481376523935	-0.428245611910738	0.6863887499863303	0.6863887499863123	-0.0456223833269888	-0.1745234055070198	0.4351172592391777	0.2149085958664074	-0.1358734209812292	0.03917105924119012	0.02008386424983541	-0.004092473054053656	0.02365224505560642	-0.0875511155219288	0.1380552010284488	-0.1796032604894819	-0.1796032604894835	0.03077737343715249	5.923236517454973e-05	-0.04767122660844304	0.01325622929516115	0.04077508991371453	0.03867528079983314	0.001906245881919159	-0.2210184817622037	-0.07216697787648164	0.008225456431657086	0.03656063725928251	-50.18274140111003	4.893353549027164	-0.6945251300117079	3.290785317520805	-476.3416154637922	-69.81761379177661	-15.68294714522013	-0.7109898728858376	0.04469949759753533	0.2705600844191942	-0.3692329023139001	0.1964904327487571	-0.6127025748846968	1.248249414844473	-1.951428211753366	-1.951428211753168	-0.02353649828585	-0.001642327042158509	-0.9888576387441	-0.2323423774928228	-1.295958281244631e-09	1.484555714657897e-08	-2.654071439744395e-08	5.311307305625509e-09	-1.236768908253308e-08	1.656847973859697e-08	5.697710659385261e-09
